<svg width="20" height="29" viewBox="0 0 20 29" fill="none" xmlns="http://www.w3.org/2000/svg">
<path d="M11.1444 8.61595C10.9874 9.69106 10.4024 10.666 9.59241 11.3746C8.78241 12.0827 7.74641 12.5163 6.67941 12.5249H6.6714H6.6634C4.5294 12.5163 3.0464 10.7666 3.3684 8.61595C3.5244 7.54084 4.1014 6.56586 4.9114 5.85729C5.7214 5.14914 6.75739 4.71601 7.82339 4.70741H7.8324H7.84041C7.92441 4.70741 8.0074 4.70741 8.0914 4.71601L7.7914 6.76567C7.7074 6.74934 7.62341 6.74118 7.53241 6.74118C6.50741 6.74934 5.5514 7.58296 5.3934 8.61595C5.2434 9.64121 5.9544 10.483 6.9794 10.483C7.6904 10.483 8.3604 10.0744 8.7594 9.48437H7.3894L7.6394 7.80296H11.1754L11.1844 8.0741C11.1904 8.24899 11.1714 8.4329 11.1444 8.61595ZM15.5324 12.2391L17.2534 0.704773H2.5784L0.00140381 18.0057H3.6814L3.1554 21.5744H6.8544L2.7834 24.0988L2.1204 28.5879H16.7954L19.2114 12.2391H15.5324Z" fill="#FFE743"/>
</svg>
